<svg height="16" width="16" xmlns="http://www.w3.org/2000/svg"><filter id="a" height="100%" width="100%" x="0%" y="0%"><feColorMatrix in="SourceGraphic" values="0 0 0 0 1 0 0 0 0 1 0 0 0 0 1 0 0 0 1 0"/></filter><mask id="c"><g filter="url(#a)"><path fill-opacity=".2" d="M0 0h16v16H0z"/></g></mask><clipPath id="b"><path d="M0 0h192v152H0z"/></clipPath><g clip-path="url(#b)" mask="url(#c)" transform="translate(-168 -16)"><path d="M113 38H31a3 3 0 0 0-3 3v74a3 3 0 0 0 3 3h82a3 3 0 0 0 3-3V41a3 3 0 0 0-3-3zm0 0"/></g><g fill="#241f31"><path d="M10 4H6v2h2v1L6 8v4h4v-2L8 9l2-1zm0 0"/><path d="M8 0C3.594 0 0 3.594 0 8s3.594 8 8 8 8-3.594 8-8-3.594-8-8-8zm0 2.133c3.254 0 5.867 2.613 5.867 5.867S11.254 13.867 8 13.867 2.133 11.254 2.133 8 4.746 2.133 8 2.133zm0 0"/></g></svg>