<svg height="128" width="128" xmlns="http://www.w3.org/2000/svg" xmlns:xlink="http://www.w3.org/1999/xlink"><linearGradient id="c" gradientUnits="userSpaceOnUse" x1="12" x2="116" y1="104" y2="104"><stop offset="0" stop-color="#613583"/><stop offset=".038" stop-color="#c061cb"/><stop offset=".077" stop-color="#613583"/><stop offset=".923" stop-color="#613583"/><stop offset=".962" stop-color="#c061cb"/><stop offset="1" stop-color="#613583"/></linearGradient><filter id="a" height="100%" width="100%" x="0%" y="0%"><feColorMatrix in="SourceGraphic" values="0 0 0 0 1 0 0 0 0 1 0 0 0 0 1 0 0 0 1 0"/></filter><mask id="e"><g filter="url(#a)"><path fill-opacity=".2" d="M0 0h128v128H0z"/></g></mask><clipPath id="d"><path d="M0 0h192v152H0z"/></clipPath><linearGradient id="f" gradientTransform="matrix(-1.02326 0 0 1.14286 129.489 -200.572)" gradientUnits="userSpaceOnUse" x1="51.952" x2="108" y1="209.311" y2="260"><stop offset="0" stop-color="#f6f5f4"/><stop offset="1" stop-color="#deddda"/></linearGradient><radialGradient id="g" cx="-223" cy="64" gradientTransform="rotate(-90 -166.972 -131.417) scale(1.55556)" gradientUnits="userSpaceOnUse" r="24"><stop offset="0" stop-color="#c061cb"/><stop offset="1" stop-color="#a347ba"/></radialGradient><linearGradient id="b" gradientUnits="userSpaceOnUse"><stop offset="0" stop-color="#3d3846"/><stop offset=".351" stop-color="#9a9996"/><stop offset=".602" stop-color="#77767b"/><stop offset="1" stop-color="#3d3846"/></linearGradient><linearGradient id="h" gradientTransform="matrix(.75 0 0 .7 -29 -63)" x1="60" x2="68" xlink:href="#b" y1="199.856" y2="199.856"/><linearGradient id="i" gradientTransform="matrix(.75 0 0 .7 -29 -96)" x1="60" x2="68" xlink:href="#b" y1="199.856" y2="199.856"/><linearGradient id="j" gradientTransform="rotate(-90 -85.5 -85.5)" gradientUnits="userSpaceOnUse" x1="-254" x2="-206" y1="64" y2="64"><stop offset="0" stop-color="#deddda"/><stop offset="1" stop-color="#f6f5f4"/></linearGradient><path d="M20 32h88a8 8 0 0 1 8 8v68a8 8 0 0 1-8 8H20a8 8 0 0 1-8-8V40a8 8 0 0 1 8-8zm0 0" fill="url(#c)"/><path d="M20 12h88a8 8 0 0 1 8 8v80a8 8 0 0 1-8 8H20a8 8 0 0 1-8-8V20a8 8 0 0 1 8-8zm0 0" fill="#a347ba"/><g clip-path="url(#d)" mask="url(#e)" transform="translate(-8 -16)"><path d="M113 38H31a3 3 0 0 0-3 3v74a3 3 0 0 0 3 3h82a3 3 0 0 0 3-3V41a3 3 0 0 0-3-3zm0 0"/></g><path d="M16 72h6v14h-6zm0-34h6v15h-6zm0 0" fill="#3d3846"/><path d="M105 20H23a3 3 0 0 0-3 3v74a3 3 0 0 0 3 3h82a3 3 0 0 0 3-3V23a3 3 0 0 0-3-3zm0 0" fill="url(#f)"/><path d="M64 33c15.465 0 28 12.535 28 28S79.465 89 64 89 36 76.465 36 61s12.535-28 28-28zm0 0" fill="#613583"/><path d="M64 31c15.465 0 28 12.535 28 28S79.465 87 64 87 36 74.465 36 59s12.535-28 28-28zm0 0" fill="url(#g)"/><path d="M19 69c-1.656 0-3 .45-3 1v14h6V70c0-.55-1.344-1-3-1zm0 0" fill="url(#h)"/><path d="M19 83c-1.656 0-3 .45-3 1s1.344 1 3 1c.34 0 .68-.02 1-.059V84h2c0-.55-1.344-1-3-1zm0-8c-1.656 0-3 .45-3 1v2c0-.55 1.344-1 3-1s3 .45 3 1v-2c0-.55-1.344-1-3-1zm1.2 2.914zm0 0" fill="#3d3846"/><path d="M19 36c-1.656 0-3 .45-3 1v14h6V37c0-.55-1.344-1-3-1zm0 0" fill="url(#i)"/><path d="M19 50c-1.656 0-3 .45-3 1s1.344 1 3 1c.34 0 .68-.02 1-.059V51h2c0-.55-1.344-1-3-1zm0-8c-1.656 0-3 .45-3 1v2c0-.55 1.344-1 3-1s3 .45 3 1v-2c0-.55-1.344-1-3-1zm1.2 2.914zm0 0" fill="#3d3846"/><path d="M64 35c13.254 0 24 10.746 24 24S77.254 83 64 83 40 72.254 40 59s10.746-24 24-24zm0 0" fill="url(#j)"/><path d="M68 43h-8v10h4v2l-4 2v18h8V65l-4-2 4-2zm0 0" fill="#3d3846"/></svg>